# Blender v3.1.2 OBJ File: ''
# www.blender.org
mtllib block.mtl
o BeercraftBlock
v 0.500000 0.500000 -0.500000
v 0.500000 -0.500000 -0.500000
v 0.500000 0.500000 0.500000
v 0.500000 -0.500000 0.500000
v -0.500000 0.500000 -0.500000
v -0.500000 -0.500000 -0.500000
v -0.500000 0.500000 0.500000
v -0.500000 -0.500000 0.500000
vt 0.000000 1.000000 #A1
vt 0.000000 0.000000 #B2
vt 1.000000 0.000000 #C3
vt 1.000000 1.000000 #D4
vt 1.000000 0.000000 #E5
vt 0.000000 1.000000 #F6
vt 0.000000 0.000000 #G7
vt 0.000000 0.000000 #H8
vt 0.000000 1.000000 #I9
vt 1.000000 1.000000 #J10
vt 1.000000 0.000000 #K11
vt 0.000000 1.000000 #L12
vt 0.000000 0.000000 #M13
vt 1.000000 1.000000 #N14
vn 0.0000 1.0000 0.0000
vn 0.0000 0.0000 1.0000
vn -1.0000 0.0000 0.0000
vn 0.0000 -1.0000 0.0000
vn 1.0000 0.0000 0.0000
vn 0.0000 0.0000 -1.0000
usemtl side
s off
f 4/5/2 3/4/2 7/6/2 8/7/2
f 8/8/3 7/9/3 5/10/3 6/11/3
f 2/13/5 1/1/5 3/4/5 4/5/5
usemtl front
f 6/11/6 5/10/6 1/1/6 2/13/6
usemtl topbottom
f 1/1/1 5/2/1 7/3/1 3/4/1
f 6/12/4 2/13/4 4/5/4 8/14/4